{"title":"The.Girl.With.The.Dragon.Tattoo.2012.CAM.SeT-CM8","uid":6960930,"size":1272635128,"categoryP":"video","categoryS":"movies","magnet":"?xt=urn:btih:918bab1aaa2b432797713e6fa6f8931011bf3e50&amp;dn=The.Girl.With.The.Dragon.Tattoo.2012.CAM.SeT-CM8&amp;tr=udp%3A%2F%2Ftracker.openbittorrent.com%3A80&amp;tr=udp%3A%2F%2Fopen.demonii.com%3A1337&amp;tr=udp%3A%2F%2Ftracker.coppersurfer.tk%3A6969&amp;tr=udp%3A%2F%2Fexodus.desync.com%3A6969","seeders":0,"leechers":1,"uploader":"TvTeam","files":5,"time":1326755839,"description":". \n &lt;a href=&quot;\nhttp://www.torrenting.com&quot; rel=&quot;nofollow&quot; target=&quot;_NEW&quot;&gt;\nhttp://www.torrenting.com&lt;/a&gt;          :     Once &amp; For all ;)\n\n\n               www . Torrenting . Com \n\n(((((((((((((= Enjoy No RAR releases =))))))))))))))))))))\n\n\n...................................NFO:....................................\n\n.[IMG]http://img94.imageshack.us/img94/89/gfdertyhbvc.png[/IMG]\n\n\n[color=blue][size=5][b]The.Girl.With.The.Dragon.Tattoo.2012.CAM.SeT-CM8[/b][/size][/color]\n\n\n[b]Source: INFERNO thank you very much guys\n\nBitrate: 1739 Kbps\nVideo: 720 x 304\nAudio: English MP3\nSample: Yes, included\n\nNote:\nNot a bad cam at all, has a slight strobe effect, but not constant\nAudio is very nice[/b]\n &lt;a href=&quot;\nhttp://www.imdb.com/title/tt1568346/&quot; rel=&quot;nofollow&quot; target=&quot;_NEW&quot;&gt;\nhttp://www.imdb.com/title/tt1568346/&lt;/a&gt;\n\n\nGeneral\nComplete name                    : The.Girl.With.The.Dragon.Tattoo.2012.CAM.SeT-CM8.avi\nFormat                           : AVI\nFormat/Info                      : Audio Video Interleave\nFile size                        : 1.17 GiB\nDuration                         : 1h 35mn\nOverall bit rate                 : 1 739 Kbps\n\nVideo\nID                               : 0\nFormat                           : MPEG-4 Visual\nFormat profile                   : Advanced Simple@L5\nFormat settings, BVOP            : 2\nFormat settings, QPel            : No\nFormat settings, GMC             : No warppoints\nFormat settings, Matrix          : Default (H.263)\nCodec ID                         : XVID\nCodec ID/Hint                    : XviD\nDuration                         : 1h 35mn\nBit rate                         : 1 599 Kbps\nWidth                            : 720 pixels\nHeight                           : 304 pixels\nDisplay aspect ratio             : 2.35:1\nFrame rate                       : 29.970 fps\nColor space                      : YUV\nChroma subsampling               : 4:2:0\nBit depth                        : 8 bits\nScan type                        : Progressive\nCompression mode                 : Lossy\nBits/(Pixel*Frame)               : 0.244\nStream size                      : 1.07 GiB (92%)\nWriting library                  : XviD 63\n\nAudio\nID                               : 1\nFormat                           : MPEG Audio\nFormat version                   : Version 1\nFormat profile                   : Layer 3\nMode                             : Joint stereo\nMode extension                   : MS Stereo\nCodec ID                         : 55\nCodec ID/Hint                    : MP3\nDuration                         : 1h 35mn\nBit rate mode                    : Constant\nBit rate                         : 128 Kbps\nChannel(s)                       : 2 channels\nSampling rate                    : 44.1 KHz\nCompression mode                 : Lossy\nStream size                      : 87.8 MiB (7%)\nAlignment                        : Aligned on interleaves\nInterleave, duration             : 33 ms (1.00 video frame)\n\n\nCast:\nDaniel Craig          ...    Mikael Blomkvist\nRooney Mara           ...    Lisbeth Salander\nChristopher Plummer   ...    Henrik Vanger\nStellan Skarsgrd     ...    Martin Vanger\nSteven Berkoff        ...    Frode\nRobin Wright          ...    Erika Berger \n\n\nPlot:\nJournalist Mikael Blomkvist is aided in his search for a woman who has been\nmissing for forty years by Lisbeth Salander, a young computer hacker.\n\n\n[img]http://img706.imageshack.us/img706/6858/ewsxcvbnjh.png[/img]\n[img]http://img707.imageshack.us/img707/3792/zxsdcvfre.png[/img]\n[img]http://img267.imageshack.us/img267/8629/juygtbvnmk.png[/img]\n[img]http://img20.imageshack.us/img20/2049/olkmnhju.png[/img]\n[img]http://img835.imageshack.us/img835/3980/yhnbvgtrf.png[/img]\n[img]http://img856.imageshack.us/img856/7708/aswedcxza.png[/img]\n[img]http://img69.imageshack.us/img69/723/wertgfvcd.png[/img]\n\n\n\nGreetz:\n\nOnce again,thank you very much to jtr INFERNO for suppling us with the files\n\nbig shout out to all @ CM8 Mr Hive,Sir Unevano,Super TED,Mr Pinny and Mr Simmo.\nGreets to INFERNO,jtr,SAiNTS,DTRG,SANTi,BDK,ViSiON,THC,SAFC,3LTON,AMIABLE and mSD\nall the other Legends out there Past and Present..\n\nLOOKING FOR ANYTHING YOU WANT TO LOOK AND SOUND BETTER\n\n&lt;a class=&quot;__cf_email__&quot; href=&quot;/cdn-cgi/l/email-protection&quot; data-cfemail=&quot;bffcf287ffd7caccd7d2ded6d391dcd0d2&quot;&gt;[email&amp;#160;protected]&lt;/a&gt;&lt;script cf-hash='f9e31' type=&quot;text/javascript&quot;&gt;\n/* &lt;![CDATA[ */!function(){try{var t=&quot;currentScript&quot;in document?document.currentScript:function(){for(var t=document.getElementsByTagName(&quot;script&quot;),e=t.length;e--;)if(t[e].getAttribute(&quot;cf-hash&quot;))return t[e]}();if(t&amp;&amp;t.previousSibling){var e,r,n,i,c=t.previousSibling,a=c.getAttribute(&quot;data-cfemail&quot;);if(a){for(e=&quot;&quot;,r=parseInt(a.substr(0,2),16),n=2;a.length-n;n+=2)i=parseInt(a.substr(n,2),16)^r,e+=String.fromCharCode(i);e=document.createTextNode(e),c.parentNode.replaceChild(e,c)}}}catch(u){}}();/* ]]&gt; */&lt;/script&gt;","torrent":{"xt":"urn:btih:918bab1aaa2b432797713e6fa6f8931011bf3e50","amp;dn":"The.Girl.With.The.Dragon.Tattoo.2012.CAM.SeT-CM8","amp;tr":["udp%3A%2F%2Ftracker.openbittorrent.com%3A80","udp%3A%2F%2Fopen.demonii.com%3A1337","udp%3A%2F%2Ftracker.coppersurfer.tk%3A6969","udp%3A%2F%2Fexodus.desync.com%3A6969"],"infoHash":"918bab1aaa2b432797713e6fa6f8931011bf3e50","infoHashBuffer":{"type":"Buffer","data":[145,139,171,26,170,43,67,39,151,113,62,111,166,248,147,16,17,191,62,80]},"announce":[],"urlList":[]}}